<svg class="logo" xmlns="http://www.w3.org/2000/svg" viewBox="0 0 651.47 216.2" version="1.1">
	<g id="surface1">
		<path style=" stroke:none;fill-rule:nonzero;fill:#000000;fill-opacity:1;" d="M 102.160156 63.558594 L 102.160156 63.835938 C 102.160156 64.660156 102.574219 65.484375 103.949219 65.484375 C 105.324219 65.484375 105.734375 64.660156 105.734375 63.835938 L 105.734375 63.558594 Z M 108.621094 81.710938 L 108.347656 81.710938 C 108.347656 85.835938 105.875 88.585938 105.875 88.585938 L 105.597656 88.585938 C 105.597656 88.585938 103.125 85.835938 103.125 81.710938 L 102.847656 81.710938 C 102.300781 83.359375 101.0625 84.183594 99.824219 84.183594 C 97.761719 84.183594 97.074219 82.261719 97.074219 82.261719 C 98.171875 79.648438 98.722656 78.132813 99.273438 76.484375 C 99.824219 74.835938 100.375 72.910156 100.375 71.808594 C 100.375 70.984375 100.097656 69.882813 98.171875 69.335938 L 97.074219 69.058594 C 96.523438 68.921875 95.835938 68.785156 95.285156 68.785156 C 94.324219 68.785156 93.5 69.195313 93.5 70.984375 L 93.222656 70.984375 C 92.675781 70.433594 91.847656 69.335938 91.847656 67.410156 C 91.847656 66.308594 92.125 65.757813 92.949219 65.210938 C 94.050781 64.523438 96.660156 63.558594 99.273438 63.011719 L 100.375 61.359375 C 100.375 61.359375 101.75 61.085938 103.535156 61.085938 C 107.109375 61.085938 111.648438 62.183594 113.574219 62.183594 C 114.949219 62.183594 116.597656 61.632813 117.421875 60.535156 L 117.699219 60.535156 L 117.699219 61.359375 C 117.699219 63.835938 116.046875 65.210938 112.472656 65.210938 L 112.472656 65.757813 C 116.046875 65.757813 117.972656 67.410156 117.972656 70.160156 C 117.972656 72.085938 116.875 73.183594 116.324219 73.460938 L 116.046875 73.460938 C 115.910156 72.910156 115.222656 72.085938 114.261719 72.085938 C 113.296875 72.085938 112.472656 72.773438 112.472656 74.148438 C 112.472656 75.796875 113.574219 80.335938 114.398438 82.261719 C 114.398438 82.261719 113.710938 84.183594 111.648438 84.183594 C 110.410156 84.183594 109.171875 83.359375 108.621094 81.710938 Z M 126.222656 99.859375 C 127.597656 101.234375 130.210938 102.609375 134.609375 102.609375 C 139.011719 102.609375 143.273438 101.234375 143.273438 101.234375 L 143.546875 101.234375 C 143.546875 104.257813 139.699219 106.734375 137.496094 107.558594 C 135.296875 108.382813 132.824219 108.660156 130.625 108.660156 C 128.421875 108.660156 124.847656 108.109375 123.746094 107.558594 L 123.746094 107.832031 C 124.847656 109.757813 127.324219 111.132813 129.246094 111.683594 C 131.171875 112.234375 132.824219 112.371094 133.648438 112.371094 C 134.472656 112.371094 136.121094 112.234375 136.121094 112.234375 L 136.121094 112.507813 C 136.121094 112.507813 135.296875 114.019531 132.824219 115.257813 C 130.625 116.359375 128.285156 116.632813 126.636719 116.632813 C 123.886719 116.632813 121.550781 115.808594 119.625 114.160156 L 119.347656 114.160156 C 119.625 116.082031 122.097656 120.757813 125.398438 120.757813 C 126.359375 120.757813 127.324219 120.34375 127.324219 119.109375 L 127.597656 119.109375 C 127.597656 119.109375 128.699219 119.65625 128.699219 121.308594 C 128.699219 122.957031 127.597656 125.15625 124.160156 125.15625 C 118.796875 125.15625 115.5 119.109375 114.671875 116.082031 L 114.398438 116.082031 C 114.398438 121.03125 116.046875 125.433594 116.046875 125.433594 L 115.910156 125.570313 C 113.296875 124.609375 110.273438 121.03125 109.449219 117.734375 L 109.171875 117.734375 C 109.171875 129.007813 112.746094 132.308594 117.285156 132.308594 C 120.722656 132.308594 122.371094 130.65625 122.371094 130.65625 L 122.648438 130.65625 C 122.648438 136.980469 119.347656 139.183594 116.046875 139.183594 C 113.296875 139.183594 110.824219 137.808594 109.449219 135.335938 L 109.171875 135.335938 C 109.171875 139.457031 110.824219 144.132813 116.324219 144.132813 C 118.523438 144.132813 119.625 143.308594 119.625 143.308594 L 119.898438 143.308594 C 119.898438 146.882813 117.699219 149.632813 114.121094 149.632813 C 111.097656 149.632813 108.621094 147.15625 107.800781 145.234375 L 107.523438 145.234375 C 107.523438 145.234375 108.621094 148.808594 108.621094 151.832031 C 108.621094 155.40625 106.972656 158.433594 105.875 159.808594 L 105.597656 159.808594 C 104.5 158.433594 102.847656 155.40625 102.847656 151.832031 C 102.847656 148.808594 103.949219 145.234375 103.949219 145.234375 L 103.671875 145.234375 C 102.847656 147.15625 100.375 149.632813 97.347656 149.632813 C 93.773438 149.632813 91.574219 146.882813 91.574219 143.308594 L 91.847656 143.308594 C 91.847656 143.308594 92.949219 144.132813 95.148438 144.132813 C 100.648438 144.132813 102.300781 139.457031 102.300781 135.335938 L 102.023438 135.335938 C 100.648438 137.808594 98.171875 139.183594 95.421875 139.183594 C 92.125 139.183594 88.824219 136.980469 88.824219 130.65625 L 89.097656 130.65625 C 89.097656 130.65625 90.75 132.308594 94.1875 132.308594 C 98.722656 132.308594 102.300781 129.007813 102.300781 117.734375 L 102.023438 117.734375 C 101.199219 121.03125 98.171875 124.609375 95.5625 125.570313 L 95.421875 125.433594 C 95.421875 125.433594 97.074219 121.03125 97.074219 116.082031 L 96.800781 116.082031 C 95.972656 119.109375 92.675781 125.15625 87.3125 125.15625 C 83.875 125.15625 82.773438 122.957031 82.773438 121.308594 C 82.773438 119.65625 83.875 119.109375 83.875 119.109375 L 84.148438 119.109375 C 84.148438 120.34375 85.113281 120.757813 86.074219 120.757813 C 89.375 120.757813 91.847656 116.082031 92.125 114.160156 L 91.847656 114.160156 C 89.921875 115.808594 87.585938 116.632813 84.835938 116.632813 C 83.1875 116.632813 80.847656 116.359375 78.648438 115.257813 C 76.175781 114.019531 75.347656 112.507813 75.347656 112.507813 L 75.347656 112.234375 C 75.347656 112.234375 77 112.371094 77.824219 112.371094 C 78.648438 112.371094 80.300781 112.234375 82.222656 111.683594 C 84.148438 111.132813 86.625 109.757813 87.722656 107.832031 L 87.722656 107.558594 C 86.625 108.109375 83.046875 108.660156 80.847656 108.660156 C 78.648438 108.660156 76.175781 108.382813 73.972656 107.558594 C 71.773438 106.734375 67.925781 104.257813 67.925781 101.234375 L 68.199219 101.234375 C 68.199219 101.234375 72.460938 102.609375 76.863281 102.609375 C 81.261719 102.609375 83.875 101.234375 85.25 99.859375 L 85.25 99.582031 C 77.824219 99.582031 73.421875 98.484375 70.949219 97.382813 C 68.472656 96.285156 65.175781 94.085938 65.175781 89.683594 L 65.449219 89.683594 C 65.449219 89.683594 68.472656 91.882813 74.113281 91.882813 C 78.511719 91.882813 81.125 90.507813 82.222656 89.410156 L 82.222656 89.132813 C 76.175781 89.132813 71.773438 88.308594 68.75 86.660156 C 65.722656 85.007813 63.523438 82.535156 63.523438 78.960938 L 63.800781 78.960938 C 63.800781 78.960938 66.824219 81.160156 72.460938 81.160156 C 76.863281 81.160156 79.472656 79.785156 80.574219 78.683594 L 80.574219 78.410156 C 74.523438 78.410156 70.125 77.585938 67.101563 75.933594 C 64.074219 74.285156 61.875 71.808594 61.875 68.234375 L 62.148438 68.234375 C 62.148438 68.234375 65.175781 70.433594 70.8125 70.433594 C 75.210938 70.433594 77.824219 69.058594 78.925781 67.960938 L 78.925781 67.683594 C 72.875 67.683594 68.472656 66.859375 65.449219 65.210938 C 62.425781 63.558594 60.222656 61.085938 60.222656 53.933594 L 60.5 53.933594 C 66.273438 58.335938 70.261719 59.160156 75.210938 59.160156 C 80.847656 59.160156 85.113281 58.058594 86.761719 58.058594 C 88.273438 58.058594 89.921875 58.886719 89.921875 61.085938 C 89.921875 63.421875 88 66.445313 88 72.222656 C 88 79.785156 91.296875 84.734375 95.699219 84.734375 C 95.699219 84.734375 96.523438 86.933594 99.546875 86.933594 C 100.921875 86.933594 101.472656 86.519531 101.472656 86.519531 L 101.75 86.519531 C 102.4375 90.371094 105.597656 91.882813 105.597656 91.882813 L 105.875 91.882813 C 105.875 91.882813 109.035156 90.371094 109.722656 86.519531 L 110 86.519531 C 110 86.519531 110.550781 86.933594 111.925781 86.933594 C 114.949219 86.933594 115.773438 84.734375 115.773438 84.734375 C 120.171875 84.734375 123.472656 79.785156 123.472656 72.222656 C 123.472656 66.445313 121.550781 63.421875 121.550781 61.085938 C 121.550781 58.886719 123.199219 58.058594 124.710938 58.058594 C 126.359375 58.058594 130.625 59.160156 136.261719 59.160156 C 141.210938 59.160156 145.199219 58.335938 150.972656 53.933594 L 151.246094 53.933594 C 151.246094 61.085938 149.046875 63.558594 146.023438 65.210938 C 142.996094 66.859375 138.597656 67.683594 132.546875 67.683594 L 132.546875 67.960938 C 133.648438 69.058594 136.261719 70.433594 140.660156 70.433594 C 146.296875 70.433594 149.320313 68.234375 149.320313 68.234375 L 149.597656 68.234375 C 149.597656 71.808594 147.398438 74.285156 144.371094 75.933594 C 141.347656 77.585938 136.949219 78.410156 130.898438 78.410156 L 130.898438 78.683594 C 132 79.785156 134.609375 81.160156 139.011719 81.160156 C 144.648438 81.160156 147.671875 78.960938 147.671875 78.960938 L 147.949219 78.960938 C 147.949219 82.535156 145.746094 85.007813 142.722656 86.660156 C 139.699219 88.308594 135.296875 89.132813 129.246094 89.132813 L 129.246094 89.410156 C 130.347656 90.507813 132.960938 91.882813 137.359375 91.882813 C 142.996094 91.882813 146.023438 89.683594 146.023438 89.683594 L 146.296875 89.683594 C 146.296875 94.085938 142.996094 96.285156 140.523438 97.382813 C 138.046875 98.484375 133.648438 99.582031 126.222656 99.582031 Z M 53.074219 56.683594 C 53.074219 97.933594 58.160156 116.90625 66 132.03125 C 74.386719 148.121094 84.972656 157.746094 103.949219 169.433594 L 105.734375 170.53125 L 107.523438 169.433594 C 126.496094 157.746094 137.085938 148.121094 145.472656 132.03125 C 153.308594 116.90625 158.398438 97.933594 158.398438 56.683594 L 158.398438 45.683594 L 53.074219 45.683594 Z M 103.671875 175.480469 C 85.113281 165.582031 71.363281 153.894531 61.050781 135.058594 C 50.738281 116.222656 47.300781 94.085938 47.300781 51.183594 L 47.300781 40.183594 L 164.171875 40.183594 L 164.171875 51.183594 C 164.171875 94.085938 160.734375 116.222656 150.421875 135.058594 C 140.109375 153.894531 126.359375 165.582031 107.800781 175.480469 L 105.734375 176.582031 L 103.671875 175.480469 "/>
		<path style=" stroke:none;fill-rule:nonzero;fill:#000000;fill-opacity:1;" d="M 199.199219 85.394531 C 199.199219 86.882813 199.265625 88.234375 199.605469 89.320313 C 200.15625 90.941406 203.4375 92.230469 206.714844 92.230469 C 217.242188 92.230469 224.761719 84.242188 224.761719 71.65625 C 224.761719 57.109375 216.96875 49.664063 203.296875 49.664063 C 202.066406 49.664063 200.496094 49.734375 199.199219 49.867188 Z M 190.449219 54.808594 C 190.449219 50.679688 190.3125 49.460938 185.664063 49.460938 C 185.253906 49.460938 184.367188 49.460938 184.367188 49.460938 L 184.367188 47.296875 C 185.9375 47.296875 188.195313 47.433594 190.859375 47.433594 C 195.644531 47.433594 201.660156 47.160156 206.308594 47.160156 C 223.871094 47.160156 234.191406 56.566406 234.191406 71.050781 C 234.191406 78.019531 231.253906 84.378906 226.265625 88.640625 C 221.070313 93.039063 214.78125 95.003906 207.675781 95.003906 C 204.597656 95.003906 199.128906 94.324219 192.84375 94.324219 C 190.652344 94.324219 187.921875 94.460938 184.503906 94.597656 L 184.503906 92.433594 C 189.835938 92.433594 190.449219 91.617188 190.449219 87.558594 L 190.449219 54.808594 "/>
		<path style=" stroke:none;fill-rule:nonzero;fill:#000000;fill-opacity:1;" d="M 260.644531 54.671875 L 253.566406 74.296875 L 267.550781 74.296875 Z M 237.777344 92.433594 C 242.152344 92.433594 244.269531 90.402344 246.050781 85.394531 L 259.347656 48.785156 C 261.464844 48.039063 263.996094 47.09375 266.457031 45.742188 L 281.902344 88.371094 C 282.996094 91.414063 284.84375 92.363281 288.257813 92.433594 L 288.257813 94.597656 C 285.253906 94.460938 281.5625 94.394531 278.757813 94.394531 C 275.886719 94.394531 272.265625 94.460938 267.890625 94.597656 L 267.890625 92.433594 C 267.890625 92.433594 268.574219 92.433594 268.847656 92.433594 C 271.582031 92.433594 272.8125 92.09375 272.8125 90.402344 C 272.8125 89.859375 272.605469 88.84375 272.128906 87.355469 L 268.914063 78.289063 L 252.199219 78.289063 L 249.261719 86.613281 C 248.714844 88.234375 248.371094 89.386719 248.371094 89.996094 C 248.371094 91.890625 250.078125 92.433594 254.042969 92.433594 L 254.042969 94.597656 C 250.628906 94.460938 246.9375 94.394531 242.972656 94.394531 C 241.742188 94.394531 239.417969 94.460938 237.777344 94.597656 L 237.777344 92.433594 "/>
		<path style=" stroke:none;fill-rule:nonzero;fill:#000000;fill-opacity:1;" d="M 291.488281 92.433594 C 296.816406 92.433594 297.5 91.617188 297.5 87.558594 L 297.5 54.808594 C 297.5 50.476563 297.363281 49.460938 292.03125 49.460938 C 291.828125 49.460938 291.488281 49.460938 291.488281 49.460938 L 291.488281 47.296875 C 293.945313 47.296875 295.722656 47.433594 296.953125 47.433594 C 304.0625 47.433594 309.257813 47.363281 312.398438 47.296875 L 312.398438 49.53125 C 306.863281 49.53125 306.25 50.410156 306.25 54.808594 L 306.25 85.257813 C 306.25 91.347656 308.246094 91.6875 315.285156 91.6875 C 323.484375 91.6875 327.546875 90.535156 329.390625 83.5 L 331.304688 84.039063 L 328.777344 94.867188 C 326.863281 94.597656 324.199219 94.527344 320.78125 94.527344 C 317.84375 94.527344 313.355469 94.597656 309.324219 94.597656 C 306.113281 94.597656 303.378906 94.597656 301.054688 94.597656 C 295.175781 94.597656 292.03125 94.597656 291.488281 94.867188 L 291.488281 92.433594 "/>
		<path style=" stroke:none;fill-rule:nonzero;fill:#000000;fill-opacity:1;" d="M 335.132813 92.433594 C 340.460938 92.433594 341.144531 91.617188 341.144531 87.558594 L 341.144531 54.808594 C 341.144531 50.476563 341.007813 49.460938 335.679688 49.460938 C 335.472656 49.460938 334.242188 49.460938 334.242188 49.460938 L 334.242188 47.296875 C 337.109375 47.433594 341.417969 47.433594 345.382813 47.433594 C 348.867188 47.433594 352.558594 47.433594 356.316406 47.296875 L 356.316406 49.460938 C 356.316406 49.460938 355.703125 49.460938 355.429688 49.460938 C 350.78125 49.460938 350.03125 50.546875 350.03125 55.011719 L 350.03125 67.9375 L 374.304688 67.9375 L 374.304688 54.808594 C 374.304688 50.476563 374.171875 49.460938 368.839844 49.460938 C 368.632813 49.460938 368.292969 49.460938 368.292969 49.460938 L 368.292969 47.296875 C 371.164063 47.433594 374.648438 47.433594 378.613281 47.433594 C 381.621094 47.433594 385.3125 47.433594 389.546875 47.296875 L 389.546875 49.460938 C 389.546875 49.460938 388.933594 49.460938 388.660156 49.460938 C 384.011719 49.460938 383.191406 50.546875 383.191406 55.011719 L 383.191406 86.34375 C 383.191406 91.144531 383.535156 92.5 389.136719 92.5 C 389.273438 92.5 389.410156 92.5 389.546875 92.5 L 389.546875 94.597656 C 385.449219 94.460938 381.757813 94.324219 378.542969 94.324219 C 375.539063 94.324219 372.121094 94.394531 368.292969 94.597656 L 368.292969 92.433594 C 373.625 92.433594 374.304688 91.617188 374.304688 87.558594 L 374.304688 71.726563 L 350.03125 71.726563 L 350.03125 86.34375 C 350.03125 91.144531 350.304688 92.5 355.90625 92.5 C 356.046875 92.5 356.179688 92.5 356.316406 92.5 L 356.316406 94.597656 C 352.628906 94.394531 349.003906 94.324219 345.382813 94.324219 C 342.308594 94.324219 338.824219 94.460938 335.132813 94.597656 L 335.132813 92.433594 "/>
		<path style=" stroke:none;fill-rule:nonzero;fill:#000000;fill-opacity:1;" d="M 404.660156 69.898438 C 404.660156 83.566406 411.972656 92.636719 421.609375 92.636719 C 430.492188 92.636719 436.644531 85.460938 436.644531 71.996094 C 436.644531 58.328125 429.195313 49.054688 419.765625 49.054688 C 410.605469 49.054688 404.660156 56.433594 404.660156 69.898438 Z M 403.15625 89.726563 C 397.621094 84.921875 395.226563 79.371094 395.226563 71.523438 C 395.226563 65.230469 397.210938 59.546875 400.898438 55.214844 C 405.957031 49.328125 412.792969 46.351563 421.609375 46.351563 C 428.035156 46.351563 433.636719 48.246094 438.148438 52.167969 C 443.683594 56.972656 446.078125 62.523438 446.078125 70.371094 C 446.078125 76.664063 444.09375 82.347656 440.40625 86.679688 C 435.347656 92.566406 428.511719 95.542969 419.695313 95.542969 C 413.269531 95.542969 407.667969 93.648438 403.15625 89.726563 "/>
		<path style=" stroke:none;fill-rule:nonzero;fill:#000000;fill-opacity:1;" d="M 451.207031 47.296875 C 454.554688 47.5 458.113281 47.636719 461.597656 47.636719 C 464.742188 47.636719 468.363281 47.5 471.917969 47.296875 L 471.917969 49.460938 C 471.917969 49.460938 471.4375 49.460938 471.164063 49.460938 C 466.515625 49.460938 466.175781 50.882813 466.175781 55.757813 L 466.175781 77.613281 C 466.175781 87.492188 470.207031 92.121094 478.886719 92.121094 C 484.011719 92.121094 488.183594 90.0625 490.164063 86.546875 C 491.734375 83.703125 492.011719 80.589844 492.011719 76.730469 L 492.011719 57.582031 C 492.011719 51.425781 491.53125 49.460938 486.746094 49.460938 C 486.40625 49.460938 485.722656 49.460938 485.722656 49.460938 L 485.722656 47.296875 C 487.636719 47.363281 489.960938 47.5 492.488281 47.5 C 495.289063 47.5 498.296875 47.296875 501.578125 47.230469 L 501.578125 49.460938 C 501.578125 49.460938 500.894531 49.460938 500.621094 49.460938 C 496.382813 49.460938 496.042969 51.355469 496.042969 57.582031 L 496.042969 75.039063 C 496.042969 81.605469 495.496094 86.207031 491.804688 90.265625 C 488.253906 94.191406 483.261719 95.542969 475.882813 95.542969 C 463.03125 95.542969 457.359375 89.65625 457.359375 77.34375 L 457.359375 56.90625 C 457.359375 50.746094 457.222656 49.597656 451.207031 49.460938 L 451.207031 47.296875 "/>
		<path style=" stroke:none;fill-rule:nonzero;fill:#000000;fill-opacity:1;" d="M 507.417969 82.28125 L 509.191406 81.941406 C 511.039063 89.320313 514.113281 92.703125 519.921875 92.703125 C 524.914063 92.703125 528.191406 89.523438 528.191406 84.445313 C 528.191406 82.144531 527.304688 80.183594 525.800781 78.828125 C 523 76.328125 519.855469 75.175781 517.460938 73.753906 C 511.585938 70.238281 508.578125 66.71875 508.578125 60.355469 C 508.578125 52.101563 514.523438 46.351563 523.476563 46.351563 C 525.597656 46.351563 528.808594 46.753906 532.910156 47.433594 L 533.589844 56.972656 L 531.816406 57.378906 C 530.585938 51.695313 527.917969 49.054688 523.339844 49.054688 C 518.898438 49.054688 515.414063 52.507813 515.414063 56.972656 C 515.414063 59.34375 516.164063 61.238281 517.667969 62.726563 C 519.921875 65.027344 522.863281 66.109375 525.597656 67.597656 C 532.15625 71.117188 535.644531 74.566406 535.644531 80.929688 C 535.644531 89.523438 529.285156 95.542969 519.511719 95.542969 C 515.617188 95.542969 512.269531 94.460938 508.441406 92.5 L 507.417969 82.28125 "/>
		<path style=" stroke:none;fill-rule:nonzero;fill:#000000;fill-opacity:1;" d="M 542.917969 92.433594 C 548.25 92.433594 548.933594 91.617188 548.933594 87.558594 L 548.933594 54.808594 C 548.933594 50.476563 548.796875 49.460938 543.464844 49.460938 C 543.257813 49.460938 542.917969 49.460938 542.917969 49.460938 L 542.917969 47.296875 C 545.789063 47.296875 549.117188 47.433594 553.082031 47.433594 C 556.566406 47.433594 560.167969 47.296875 563.925781 47.296875 L 563.925781 49.460938 C 563.925781 49.460938 563.308594 49.460938 563.039063 49.460938 C 558.390625 49.460938 557.636719 50.546875 557.636719 55.011719 L 557.636719 86.613281 C 557.636719 91.347656 557.980469 92.433594 563.925781 92.433594 L 563.925781 94.597656 C 560.644531 94.597656 557.367188 94.324219 553.949219 94.324219 C 550.667969 94.324219 547.085938 94.597656 542.917969 94.597656 L 542.917969 92.433594 "/>
		<path style=" stroke:none;fill-rule:nonzero;fill:#000000;fill-opacity:1;" d="M 569.039063 92.433594 C 574.367188 92.433594 575.054688 91.617188 575.054688 87.558594 L 575.054688 54.808594 C 575.054688 50.476563 574.917969 49.460938 569.585938 49.460938 C 569.378906 49.460938 569.039063 49.460938 569.039063 49.460938 L 569.039063 47.296875 C 572.796875 47.296875 578.578125 47.433594 585.960938 47.433594 C 596.007813 47.433594 602.0625 47.296875 603.703125 47.296875 L 603.703125 57.515625 L 601.925781 57.921875 C 601.3125 51.152344 598.851563 50.207031 591.742188 50.207031 L 583.871094 50.207031 L 583.871094 68.136719 L 589.71875 68.136719 C 595.394531 68.136719 597.347656 67.597656 597.347656 62.523438 C 597.347656 62.453125 597.347656 62.253906 597.347656 62.253906 L 599.398438 62.253906 C 599.261719 65.160156 599.125 67.597656 599.125 69.761719 C 599.125 71.792969 599.191406 74.363281 599.332031 77.410156 L 597.484375 77.816406 C 597.347656 72.132813 595.734375 71.523438 589.859375 71.523438 L 583.871094 71.523438 L 583.871094 85.460938 C 583.871094 90.808594 585.386719 91.6875 591.878906 91.6875 C 600.699219 91.6875 604.320313 90.875 606.234375 83.5 L 608.144531 84.039063 L 605.617188 94.800781 C 598.988281 94.597656 593.410156 94.597656 589.171875 94.597656 C 585.757813 94.597656 582.980469 94.597656 581.066406 94.597656 C 578.949219 94.597656 576.96875 94.597656 575.121094 94.597656 C 572.867188 94.597656 570.816406 94.597656 569.039063 94.800781 L 569.039063 92.433594 "/>
		<path style=" stroke:none;fill-rule:nonzero;fill:#000000;fill-opacity:1;" d="M 184.636719 121.3125 C 187.953125 121.519531 191.472656 121.652344 194.921875 121.652344 C 198.035156 121.652344 201.621094 121.519531 205.140625 121.3125 L 205.140625 123.480469 C 205.140625 123.480469 204.664063 123.480469 204.394531 123.480469 C 199.796875 123.480469 199.457031 124.898438 199.457031 129.773438 L 199.457031 151.628906 C 199.457031 161.511719 203.273438 166.136719 211.867188 166.136719 C 216.941406 166.136719 220.894531 164.082031 222.855469 160.5625 C 224.410156 157.71875 224.683594 154.609375 224.683594 150.75 L 224.683594 131.601563 C 224.683594 125.441406 224.210938 123.480469 219.472656 123.480469 C 219.132813 123.480469 218.457031 123.480469 218.457031 123.480469 L 218.457031 121.3125 C 220.351563 121.382813 222.652344 121.519531 225.15625 121.519531 C 227.929688 121.519531 230.90625 121.3125 234.15625 121.246094 L 234.15625 123.480469 C 234.15625 123.480469 233.480469 123.480469 233.207031 123.480469 C 229.011719 123.480469 228.675781 125.375 228.675781 131.601563 L 228.675781 149.058594 C 228.675781 155.621094 228.132813 160.222656 224.480469 164.285156 C 220.960938 168.207031 216.195313 169.5625 208.890625 169.5625 C 196.167969 169.5625 190.726563 163.671875 190.726563 151.359375 L 190.726563 130.921875 C 190.726563 124.765625 190.59375 123.617188 184.636719 123.480469 L 184.636719 121.3125 "/>
		<path style=" stroke:none;fill-rule:nonzero;fill:#000000;fill-opacity:1;" d="M 239.253906 166.449219 C 239.253906 166.449219 239.792969 166.449219 240.066406 166.449219 C 245.273438 166.449219 246.289063 163.671875 246.289063 156.027344 L 246.289063 130.3125 C 246.289063 125.578125 245.410156 124.226563 239.523438 123.480469 L 239.523438 121.3125 C 240.945313 121.3125 243.242188 121.449219 246.5625 121.449219 C 250.078125 121.449219 253.058594 121.3125 253.058594 121.3125 L 279.851563 155.214844 L 279.851563 131.058594 C 279.851563 125.105469 278.363281 123.480469 272.949219 123.480469 C 272.8125 123.480469 272.613281 123.480469 272.613281 123.480469 L 272.613281 121.3125 C 274.4375 121.3125 276.605469 121.449219 279.242188 121.449219 C 283.574219 121.449219 287.09375 121.3125 289.933594 121.3125 L 289.933594 123.480469 C 289.933594 123.480469 289.527344 123.480469 289.324219 123.480469 C 284.113281 123.480469 283.167969 125.847656 283.167969 133.15625 L 283.167969 169.898438 L 280.730469 169.898438 L 249.605469 130.789063 L 249.605469 156.027344 C 249.605469 163.671875 250.148438 166.449219 255.425781 166.449219 C 255.898438 166.449219 256.847656 166.449219 256.847656 166.449219 L 256.847656 168.613281 C 254.613281 168.613281 251.769531 168.410156 248.457031 168.410156 C 245.207031 168.410156 242.164063 168.613281 239.253906 168.613281 L 239.253906 166.449219 "/>
		<path style=" stroke:none;fill-rule:nonzero;fill:#000000;fill-opacity:1;" d="M 294.785156 166.449219 C 300.0625 166.449219 300.742188 165.636719 300.742188 161.578125 L 300.742188 128.828125 C 300.742188 124.492188 300.605469 123.480469 295.328125 123.480469 C 295.125 123.480469 294.785156 123.480469 294.785156 123.480469 L 294.785156 121.3125 C 297.628906 121.3125 301.011719 121.449219 304.9375 121.449219 C 308.386719 121.449219 311.25 121.3125 314.96875 121.3125 L 314.96875 123.480469 C 314.96875 123.480469 314.625 123.480469 314.355469 123.480469 C 309.753906 123.480469 309.359375 124.5625 309.359375 129.027344 L 309.359375 160.628906 C 309.359375 165.367188 309.699219 166.449219 315.585938 166.449219 L 315.585938 168.613281 C 312.339844 168.613281 309.265625 168.34375 305.882813 168.34375 C 302.636719 168.34375 298.914063 168.613281 294.785156 168.613281 L 294.785156 166.449219 "/>
		<path style=" stroke:none;fill-rule:nonzero;fill:#000000;fill-opacity:1;" d="M 339.988281 169.425781 L 323.542969 127.203125 C 322.210938 123.90625 320.039063 123.679688 317.953125 123.480469 L 317.953125 121.3125 C 320.863281 121.3125 323.136719 121.449219 325.574219 121.449219 C 330.917969 121.449219 334.84375 121.3125 337.550781 121.3125 L 337.550781 123.480469 C 337.550781 123.480469 336.847656 123.480469 336.574219 123.480469 C 333.886719 123.480469 332.882813 124.089844 332.882813 125.308594 C 332.882813 126.390625 333.285156 127.402344 333.625 128.351563 L 343.976563 157.3125 L 354.46875 128.554688 C 354.875 127.472656 355.074219 126.59375 355.074219 125.914063 C 355.074219 124.019531 353.453125 123.546875 349.664063 123.480469 L 349.664063 121.3125 C 351.558594 121.3125 353.453125 121.449219 355.277344 121.449219 C 356.972656 121.449219 359.839844 121.3125 363.835938 121.3125 L 363.835938 123.480469 C 361.664063 123.480469 359.746094 124.96875 358.527344 128.015625 L 342.492188 169.425781 L 339.988281 169.425781 "/>
		<path style=" stroke:none;fill-rule:nonzero;fill:#000000;fill-opacity:1;" d="M 366.09375 166.449219 C 371.371094 166.449219 372.046875 165.636719 372.046875 161.578125 L 372.046875 128.828125 C 372.046875 124.492188 371.355469 123.480469 367.691406 123.480469 C 367.398438 123.480469 367.3125 123.480469 366.796875 123.480469 L 366.796875 121.3125 C 370.519531 121.3125 375.363281 121.449219 382.671875 121.449219 C 392.617188 121.449219 398.4375 121.3125 400.0625 121.3125 L 400.0625 131.53125 L 398.304688 131.9375 C 397.695313 125.171875 395.257813 124.226563 388.21875 124.226563 L 380.777344 124.226563 L 380.777344 142.15625 L 386.394531 142.15625 C 392.007813 142.15625 393.769531 141.613281 393.769531 136.539063 C 393.769531 136.472656 393.769531 136.269531 393.769531 136.269531 L 395.800781 136.269531 C 395.664063 139.179688 395.527344 141.613281 395.527344 143.78125 C 395.527344 145.808594 395.59375 148.382813 395.730469 151.429688 L 393.90625 151.832031 C 393.769531 146.148438 392.347656 145.539063 386.527344 145.539063 L 380.777344 145.539063 L 380.777344 159.476563 C 380.777344 164.824219 381.925781 165.703125 388.355469 165.703125 C 397.085938 165.703125 400.671875 164.894531 402.566406 157.515625 L 404.460938 158.058594 L 401.957031 168.820313 C 395.394531 168.613281 390.046875 168.613281 385.851563 168.613281 C 382.46875 168.613281 379.898438 168.613281 378.003906 168.613281 C 375.90625 168.613281 373.941406 168.613281 372.117188 168.613281 C 369.882813 168.613281 367.851563 168.613281 366.09375 168.820313 L 366.09375 166.449219 "/>
		<path style=" stroke:none;fill-rule:nonzero;fill:#000000;fill-opacity:1;" d="M 427.6875 144.59375 C 435.402344 144.59375 439.054688 141.277344 439.054688 134.375 C 439.054688 127.269531 435.332031 123.816406 427.753906 123.816406 C 427.007813 123.816406 425.753906 123.816406 424.945313 123.886719 L 424.945313 144.523438 C 425.753906 144.59375 426.941406 144.59375 427.6875 144.59375 Z M 410.347656 166.449219 C 415.625 166.449219 416.304688 165.636719 416.304688 160.898438 L 416.304688 128.828125 C 416.304688 124.492188 416.167969 123.480469 410.890625 123.480469 L 410.347656 123.480469 L 410.347656 121.3125 C 414.207031 121.449219 417.386719 121.449219 419.890625 121.449219 C 424.015625 121.449219 427.890625 121.246094 430.867188 121.246094 C 442.03125 121.246094 448.121094 125.984375 448.121094 133.292969 C 448.121094 139.042969 444.804688 143.171875 438.648438 145.269531 C 447.039063 159.277344 451.910156 166.585938 455.765625 166.585938 C 455.972656 166.585938 456.726563 166.585938 456.726563 166.585938 L 456.726563 168.613281 C 454.902344 168.476563 452.453125 168.410156 450.152344 168.410156 C 448.257813 168.410156 446.179688 168.476563 443.675781 168.613281 C 438.398438 161.035156 434 153.863281 430.414063 147.027344 L 424.945313 147.027344 L 424.945313 160.898438 C 424.945313 165.636719 425.6875 166.449219 431.238281 166.449219 L 431.238281 168.613281 C 427.652344 168.410156 424.152344 168.34375 420.5 168.34375 C 416.980469 168.34375 413.527344 168.410156 410.347656 168.613281 L 410.347656 166.449219 "/>
		<path style=" stroke:none;fill-rule:nonzero;fill:#000000;fill-opacity:1;" d="M 459.816406 156.296875 L 461.574219 155.960938 C 463.402344 163.335938 466.445313 166.71875 472.199219 166.71875 C 477.140625 166.71875 480.386719 163.539063 480.386719 158.464844 C 480.386719 156.164063 479.507813 154.203125 478.015625 152.847656 C 475.242188 150.34375 472.132813 149.191406 469.761719 147.773438 C 463.941406 144.253906 460.964844 140.734375 460.964844 134.375 C 460.964844 126.117188 466.851563 120.367188 475.714844 120.367188 C 477.8125 120.367188 480.996094 120.773438 485.054688 121.449219 L 485.730469 130.992188 L 483.972656 131.398438 C 482.753906 125.710938 480.117188 123.074219 475.582031 123.074219 C 471.183594 123.074219 467.730469 126.523438 467.730469 130.992188 C 467.730469 133.359375 468.476563 135.253906 469.964844 136.742188 C 472.199219 139.042969 475.109375 140.128906 477.8125 141.613281 C 484.308594 145.132813 487.761719 148.585938 487.761719 154.945313 C 487.761719 163.539063 481.46875 169.5625 471.792969 169.5625 C 467.933594 169.5625 464.617188 168.476563 460.828125 166.519531 L 459.816406 156.296875 "/>
		<path style=" stroke:none;fill-rule:nonzero;fill:#000000;fill-opacity:1;" d="M 494.351563 166.449219 C 499.628906 166.449219 500.304688 165.636719 500.304688 161.578125 L 500.304688 128.828125 C 500.304688 124.492188 500.171875 123.480469 494.890625 123.480469 C 494.6875 123.480469 494.351563 123.480469 494.351563 123.480469 L 494.351563 121.3125 C 497.191406 121.3125 500.484375 121.449219 504.414063 121.449219 C 507.863281 121.449219 511.429688 121.3125 515.152344 121.3125 L 515.152344 123.480469 C 515.152344 123.480469 514.542969 123.480469 514.273438 123.480469 C 509.671875 123.480469 508.925781 124.5625 508.925781 129.027344 L 508.925781 160.628906 C 508.925781 165.367188 509.265625 166.449219 515.152344 166.449219 L 515.152344 168.613281 C 511.902344 168.613281 508.746094 168.34375 505.359375 168.34375 C 502.113281 168.34375 498.480469 168.613281 494.351563 168.613281 L 494.351563 166.449219 "/>
		<path style=" stroke:none;fill-rule:nonzero;fill:#000000;fill-opacity:1;" d="M 528.757813 166.449219 C 528.757813 166.449219 529.164063 166.449219 529.363281 166.449219 C 534.847656 166.449219 535.253906 165.367188 535.253906 159.953125 L 535.253906 124.492188 L 528.457031 124.492188 C 523.179688 124.492188 521.21875 125.441406 520.066406 131.125 L 518.171875 130.992188 C 518.714844 127.675781 519.121094 123.886719 519.390625 119.621094 L 521.015625 119.621094 C 521.355469 121.246094 522.707031 121.3125 525.140625 121.3125 L 554.765625 121.3125 C 556.863281 121.3125 558.21875 121.3125 558.894531 119.417969 L 560.382813 119.894531 C 559.910156 124.226563 559.640625 127.8125 559.503906 130.585938 L 557.472656 131.261719 C 557.339844 125.78125 556.050781 124.492188 551.382813 124.492188 L 544.046875 124.492188 L 544.046875 159.953125 C 544.046875 165.367188 544.453125 166.449219 550.546875 166.449219 L 550.546875 168.613281 C 545.199219 168.613281 543.101563 168.277344 539.855469 168.277344 C 536.605469 168.277344 532.546875 168.613281 528.757813 168.613281 L 528.757813 166.449219 "/>
		<path style=" stroke:none;fill-rule:nonzero;fill:#000000;fill-opacity:1;" d="M 574.753906 166.449219 L 575.429688 166.449219 C 580.507813 166.449219 581.25 165.367188 581.25 160.019531 L 581.25 146.894531 L 569.691406 128.488281 C 567.730469 125.441406 566.851563 123.480469 563.46875 123.480469 L 563.46875 121.3125 C 565.839844 121.3125 568.136719 121.449219 573.957031 121.449219 C 577.203125 121.449219 580.179688 121.3125 582.753906 121.3125 L 582.753906 123.480469 L 581.535156 123.480469 C 579.371094 123.480469 578.289063 123.953125 578.289063 125.035156 C 578.289063 125.78125 578.761719 126.59375 579.503906 127.605469 L 587.746094 141.816406 L 595.609375 129.300781 C 596.691406 127.675781 597.570313 126.523438 597.570313 125.441406 C 597.570313 124.226563 595.878906 123.617188 592.425781 123.480469 L 592.425781 121.3125 C 595.945313 121.382813 598.925781 121.449219 601.429688 121.449219 C 603.933594 121.449219 604.457031 121.3125 606.894531 121.3125 L 606.894531 123.480469 C 603.171875 123.683594 602.375 125.644531 599.601563 129.707031 L 590.046875 144.523438 L 590.046875 159.953125 C 590.046875 165.367188 590.722656 166.449219 596.542969 166.449219 L 596.542969 168.613281 C 592.820313 168.476563 589.4375 168.410156 585.851563 168.410156 C 582.265625 168.410156 578.609375 168.613281 574.753906 168.613281 L 574.753906 166.449219 "/>
	</g>
</svg>
